HIERARCHY
ROOT Hips
{
	OFFSET 0.00 0.00 0.00
	CHANNELS 6 Xposition Yposition Zposition Yrotation Xrotation Zrotation
	JOINT LHipJoint
	{
		OFFSET	0.0000	0.0000	0.0000
		CHANNELS 3 Yrotation Xrotation Zrotation
		JOINT LeftUpLeg
		{
			OFFSET	1.0138	-0.0809	-0.0827
			CHANNELS 3 Yrotation Xrotation Zrotation
			JOINT LeftLeg
			{
				OFFSET	0.4110	-3.9095	0.3245
				CHANNELS 3 Yrotation Xrotation Zrotation
				JOINT LeftFoot
				{
					OFFSET	0.3810	-4.0555	-0.1470
					CHANNELS 3 Yrotation Xrotation Zrotation
					JOINT LeftToeBase
					{
						OFFSET	0.1396	-0.4462	1.3079
						CHANNELS 3 Yrotation Xrotation Zrotation
						End Site
						{
							OFFSET 0.0161 -0.0248 0.1809
						}
					}
				}
			}
		}
	}
	JOINT LowerBack
	{
		OFFSET	0.0000	0.7977	-0.3873
		CHANNELS 3 Yrotation Xrotation Zrotation
		JOINT Spine
		{
			OFFSET	0.0000	1.4131	0.1715
			CHANNELS 3 Yrotation Xrotation Zrotation
			JOINT Spine1
			{
				OFFSET	0.0000	1.4392	-0.1032
				CHANNELS 3 Yrotation Xrotation Zrotation
				JOINT LeftShoulder
				{
					OFFSET	0.2274	1.0382	0.4032
					CHANNELS 3 Yrotation Xrotation Zrotation
					JOINT LeftArm
					{
						OFFSET	1.4730	-0.2267	-0.0231
						CHANNELS 3 Yrotation Xrotation Zrotation
						JOINT LeftForeArm
						{
							OFFSET	1.6131	-1.8059	0.0081
							CHANNELS 3 Yrotation Xrotation Zrotation
							JOINT LeftHand
							{
								OFFSET	1.2197	-1.2423	1.6317
								CHANNELS 3 Yrotation Xrotation Zrotation
								JOINT LThumb
								{
									OFFSET	0.0109	-0.0753	0.4387
									CHANNELS 3 Yrotation Xrotation Zrotation
									End Site
									{
										OFFSET -0.2090 -0.0868 0.2097
									}
								}
								JOINT LeftFingerBase
								{
									OFFSET	0.1071	-0.1567	0.2607
									CHANNELS 3 Yrotation Xrotation Zrotation
									JOINT LeftHandFinger1
									{
										OFFSET	0.1706	-0.2492	0.6830
										CHANNELS 3 Yrotation Xrotation Zrotation
										End Site
										{
											OFFSET 0.0335 -0.1507 0.2071
										}
									}
								}
							}
						}
					}
				}
				JOINT Neck
				{
					OFFSET	0.0000	1.7498	0.2381
					CHANNELS 3 Yrotation Xrotation Zrotation
					JOINT Neck1
					{
						OFFSET	0.0000	0.5043	0.1959
						CHANNELS 3 Yrotation Xrotation Zrotation
						JOINT Head
						{
							OFFSET	0.0000	0.5044	0.1959
							CHANNELS 3 Yrotation Xrotation Zrotation
							End Site
							{
								OFFSET 0.0000 1.4798 -0.0693
							}
						}
					}
				}
				JOINT RightShoulder
				{
					OFFSET	-0.2274	1.0382	0.4032
					CHANNELS 3 Yrotation Xrotation Zrotation
					JOINT RightArm
					{
						OFFSET	-1.4730	-0.2267	-0.0231
						CHANNELS 3 Yrotation Xrotation Zrotation
						JOINT RightForeArm
						{
							OFFSET	-1.6131	-1.8059	0.0081
							CHANNELS 3 Yrotation Xrotation Zrotation
							JOINT RightHand
							{
								OFFSET	-1.2197	-1.2423	1.6317
								CHANNELS 3 Yrotation Xrotation Zrotation
								JOINT RThumb
								{
									OFFSET	-0.0109	-0.0753	0.4387
									CHANNELS 3 Yrotation Xrotation Zrotation
									End Site
									{
										OFFSET 0.2090 -0.0868 0.2097
									}
								}
								JOINT RightFingerBase
								{
									OFFSET	-0.1071	-0.1567	0.2607
									CHANNELS 3 Yrotation Xrotation Zrotation
									JOINT RightHandFinger1
									{
										OFFSET	-0.1706	-0.2492	0.6830
										CHANNELS 3 Yrotation Xrotation Zrotation
										End Site
										{
											OFFSET -0.0335 -0.1507 0.2071
										}
									}
								}
							}
						}
					}
				}
			}
		}
	}
	JOINT RHipJoint
	{
		OFFSET	0.0000	0.0000	0.0000
		CHANNELS 3 Yrotation Xrotation Zrotation
		JOINT RightUpLeg
		{
			OFFSET	-1.0138	-0.0809	-0.0827
			CHANNELS 3 Yrotation Xrotation Zrotation
			JOINT RightLeg
			{
				OFFSET	-0.4110	-3.9095	0.3245
				CHANNELS 3 Yrotation Xrotation Zrotation
				JOINT RightFoot
				{
					OFFSET	-0.3810	-4.0555	-0.1470
					CHANNELS 3 Yrotation Xrotation Zrotation
					JOINT RightToeBase
					{
						OFFSET	-0.1396	-0.4462	1.3079
						CHANNELS 3 Yrotation Xrotation Zrotation
						End Site
						{
							OFFSET -0.0161 -0.0248 0.1809
						}
					}
				}
			}
		}
	}
}
MOTION
Frames: 13
Frame Time: 0.0333333
-1.1934 8.6799 1.0747 5.5774 2.7521 2.7321 0.0000 -0.0000 0.0000 -5.2276 4.0881 -0.4728 -1.3866 0.0369 -0.1268 7.2578 -5.7242 -5.5270 0.0421 -6.4095 6.1822 0.0000 -0.0000 0.0000 0.1020 -2.2912 -0.9449 0.1843 -4.5825 -1.2468 0.0618 5.8758 42.5986 -21.3093 -39.2281 65.9386 -3.7816 -18.8990 -0.4904 13.1627 -35.3033 39.2242 27.9318 -13.3605 15.0062 -0.2764 28.0258 -17.0084 -13.7067 0.2007 -7.5693 0.6067 3.4458 -0.8499 0.6067 3.4458 -0.8500 -10.3942 -11.1906 5.5582 2.8347 8.5926 -45.4439 24.1199 -28.7241 -72.4912 -16.0193 -4.3407 3.2284 -23.2381 -42.2512 -17.4359 -42.0657 -13.7802 7.8075 11.6305 20.4601 26.9701 6.4417 -5.3558 2.0893 0.0000 -0.0000 0.0000 -19.9879 -6.2268 2.8674 -2.4360 15.3254 -0.2871 0.4920 -12.7206 -3.7861 -0.1597 -0.1033 -0.7372 
-1.1931 8.6801 1.0766 5.3588 3.1977 2.7607 0.0000 -0.0000 0.0000 -4.8228 3.6724 -0.4772 -1.3958 0.0474 -0.1272 7.0868 -5.6776 -5.5115 0.0025 -6.6594 6.2277 0.0000 -0.0000 0.0000 0.1359 -2.3993 -0.8715 0.2535 -4.7987 -1.0973 0.3777 5.8393 43.1344 -17.3370 -36.1182 65.5933 -6.3527 -21.3056 0.3841 -1.1677 -35.9879 54.2903 27.8449 -14.1126 14.6210 -0.8376 27.7557 -17.1928 -13.0152 -0.3222 -7.0243 0.6052 3.3793 -0.7938 0.6052 3.3794 -0.7938 -10.3238 -11.8983 5.5321 2.6639 8.5965 -45.7671 17.6126 -24.3331 -71.2950 -12.7632 -8.1159 2.7555 2.2583 -43.9675 -38.4799 -40.6778 -13.4322 9.2907 12.5722 19.7911 27.1419 6.0820 -5.6989 1.8166 0.0000 -0.0000 0.0000 -20.3639 -6.6842 2.9857 -2.3701 15.2937 -0.2620 1.0901 -12.6422 -3.8952 -0.1976 -0.1622 -0.9337 
-1.1933 8.6878 1.0795 5.1367 3.6599 2.8322 0.0000 -0.0000 0.0000 -4.2142 3.2232 -0.5249 -1.4375 0.0531 -0.1293 6.6917 -5.2614 -5.5121 -0.1610 -7.6604 6.4470 0.0000 -0.0000 0.0000 0.1541 -2.4595 -0.8124 0.2924 -4.9194 -0.9802 0.5325 5.8080 43.2567 -14.7754 -32.4512 66.3202 -1.8839 -16.8479 -1.1087 -6.9657 -35.7570 58.9846 28.0990 -13.2133 15.2059 -1.8322 28.1719 -17.9421 -11.9287 -1.1647 -6.1727 0.6025 3.2239 -0.7774 0.6025 3.2239 -0.7774 -10.2827 -12.6486 5.5249 2.4521 8.5940 -46.1283 12.5768 -19.3649 -72.3993 -15.7280 -4.5714 3.1898 20.0828 -41.0505 -48.4860 -42.2314 -13.1631 6.8426 11.1068 17.6221 24.7244 5.5045 -6.2570 1.3794 0.0000 -0.0000 0.0000 -20.6410 -6.9529 3.0815 -2.1969 14.8618 -0.2048 1.6099 -12.3610 -3.9150 -0.3201 -0.5993 -1.3881 
-1.1950 8.7044 1.0769 4.8800 3.9334 3.0043 0.0000 -0.0000 0.0000 -3.6040 2.8894 -0.6781 -1.5588 0.1141 -0.1401 6.2644 -4.3939 -5.5494 -0.4079 -9.4238 6.8344 0.0000 -0.0000 0.0000 0.1394 -2.3931 -0.7830 0.2657 -4.7866 -0.9241 0.4227 5.7949 42.8297 -13.4831 -28.8848 66.8705 7.3632 -6.7617 -3.0462 0.1584 -36.1760 51.6517 28.6775 -10.7324 16.7205 -3.0259 28.8825 -18.9548 -10.8845 -1.9995 -5.3576 0.6084 3.0092 -0.8053 0.6084 3.0093 -0.8053 -10.1524 -13.4751 5.5722 2.3699 8.5805 -46.1671 9.9133 -15.2303 -74.2934 -22.9827 4.1980 3.4724 20.3688 -41.3047 -47.9549 -45.0238 -13.1066 2.6933 8.2567 15.2187 21.2778 5.0296 -6.7223 1.0208 0.0000 -0.0000 0.0000 -20.6396 -6.8844 3.0417 -1.9152 13.9927 -0.1200 1.8789 -11.8433 -3.8612 -0.4890 -1.5356 -1.9126 
-1.1976 8.7261 1.0686 4.5744 4.2377 3.2518 0.0000 -0.0000 0.0000 -2.8095 2.4504 -0.8955 -1.6618 0.2358 -0.1445 5.6511 -3.1596 -5.5356 -0.6890 -11.3008 7.0468 0.0000 -0.0000 0.0000 0.1101 -2.2750 -0.7684 0.2114 -4.5503 -0.8987 0.0995 5.7930 41.9614 -13.2756 -25.3374 66.9089 18.7613 6.4060 -3.1085 17.3474 -34.3770 32.8381 29.6987 -7.5585 18.8771 -4.9005 29.9380 -20.5467 -10.4130 -2.3846 -4.9906 0.6252 2.7861 -0.8816 0.6252 2.7861 -0.8816 -9.9147 -14.1809 5.6778 2.5523 8.5541 -45.5703 9.1594 -12.8801 -75.6540 -31.3680 14.0714 2.4169 -1.1158 -46.1261 -37.2950 -47.0041 -12.8239 -0.5033 5.3561 13.8650 18.6781 4.7798 -6.9689 0.8333 0.0000 -0.0000 0.0000 -20.5668 -6.7887 2.9582 -1.5686 12.8887 -0.0315 2.1253 -11.1581 -3.7375 -0.6727 -2.6309 -2.6138 
-1.1990 8.7488 1.0602 4.2098 4.7772 3.4886 0.0000 -0.0000 0.0000 -1.6704 1.7264 -1.0923 -1.8656 0.4601 -0.1668 4.7695 -1.9252 -5.6238 -0.9453 -13.2200 7.4618 0.0000 -0.0000 0.0000 0.1075 -2.2199 -0.7449 0.2124 -4.4401 -0.8583 -0.3421 5.7879 40.7850 -13.3105 -22.1491 66.5721 29.8950 18.4585 -0.6937 32.4431 -27.7847 7.4956 30.8280 -5.1245 20.8394 -6.6858 31.0148 -22.1284 -10.6817 -2.1644 -5.2000 0.6449 2.6088 -0.9956 0.6449 2.6089 -0.9956 -9.6699 -14.5667 5.7847 2.9524 8.5064 -44.3939 9.2532 -12.4767 -75.9702 -38.2042 21.4470 0.5282 -32.9521 -41.6366 -9.4030 -47.6273 -11.8715 -2.1018 3.0796 13.9595 17.6071 4.6803 -7.0675 0.7590 0.0000 -0.0000 0.0000 -20.7476 -6.8640 2.9647 -1.1942 11.6680 0.0455 2.6864 -10.3718 -3.5451 -0.8471 -3.6970 -3.4507 
-1.1980 8.7699 1.0563 3.7780 5.4386 3.6502 0.0000 -0.0000 0.0000 -0.3724 0.9181 -1.2566 -2.0589 0.6994 -0.1893 3.8312 -0.8396 -5.7301 -1.1953 -14.8474 7.8774 0.0000 -0.0000 0.0000 0.1702 -2.2511 -0.7081 0.3443 -4.5029 -0.8001 -0.8432 5.7725 39.4201 -12.8822 -20.4772 65.8571 37.0906 25.2409 2.0284 41.7665 -17.2808 -12.7334 31.3582 -4.3701 21.6467 -6.9694 31.4208 -22.4931 -11.2798 -1.6808 -5.6652 0.6568 2.5214 -1.1133 0.6568 2.5214 -1.1133 -9.5497 -14.6296 5.8810 3.3994 8.4365 -42.9864 9.4191 -13.3115 -75.4653 -39.6046 22.9053 0.0087 -43.0896 -23.1911 18.6804 -47.5306 -10.7148 -2.8062 1.5213 14.8510 17.5169 4.6602 -7.0874 0.7440 0.0000 -0.0000 0.0000 -21.1831 -7.0094 3.0630 -0.8193 10.4383 0.1099 3.5398 -9.5846 -3.2097 -0.9991 -4.4924 -4.4187 
-1.1962 8.7868 1.0576 3.3283 5.9783 3.7316 0.0000 -0.0000 0.0000 0.7605 0.3129 -1.3844 -2.1903 0.8858 -0.2041 3.0967 0.0053 -5.7756 -1.4414 -16.1762 8.1685 0.0000 -0.0000 0.0000 0.3018 -2.3149 -0.6887 0.6127 -4.6309 -0.7826 -1.2879 5.7411 38.2165 -12.2515 -21.2123 64.6221 37.0206 25.3077 2.0840 47.9815 -9.5960 -19.3402 31.1260 -4.9469 21.2313 -5.8964 31.0446 -21.6673 -11.6881 -1.3553 -5.9827 0.6567 2.5476 -1.1906 0.6567 2.5476 -1.1906 -9.6123 -14.4342 6.0343 3.7415 8.3617 -41.7790 9.3067 -14.4891 -74.3478 -39.5514 22.9534 -0.0335 -45.3595 -14.7914 27.6906 -47.4260 -10.0270 -3.2182 0.7420 15.6987 17.7547 4.7268 -7.0214 0.7938 0.0000 -0.0000 0.0000 -21.5578 -7.0590 3.1688 -0.4601 9.3726 0.1738 4.3178 -8.9137 -2.8304 -1.1262 -5.1135 -5.3446 
-1.1959 8.7976 1.0620 2.9670 6.2868 3.7575 0.0000 -0.0000 0.0000 1.5724 -0.0068 -1.4490 -2.2949 1.0197 -0.2183 2.6070 0.5240 -5.7810 -1.6330 -17.2021 8.3739 0.0000 -0.0000 0.0000 0.4546 -2.3706 -0.7139 0.9226 -4.7426 -0.8519 -1.4957 5.6984 37.6151 -11.9258 -23.9110 62.8570 36.9378 25.3868 2.1503 48.3522 -9.2842 -19.4088 30.6000 -5.8639 20.3727 -5.0493 30.6024 -20.9568 -11.7753 -1.2863 -6.0508 0.6485 2.6886 -1.2021 0.6485 2.6886 -1.2021 -9.7950 -13.9515 6.2394 3.9025 8.3071 -41.1041 8.9752 -15.6074 -72.7022 -39.4885 23.0103 -0.0844 -48.7793 -10.4712 30.6617 -47.5029 -9.8340 -3.5239 0.7005 16.1774 18.0674 4.8427 -6.9066 0.8806 0.0000 -0.0000 0.0000 -21.6542 -6.9806 3.2335 -0.2212 8.6061 0.2182 4.7320 -8.4689 -2.5689 -1.1950 -5.5062 -5.9431 
-1.1978 8.8004 1.0667 2.7511 6.3744 3.7734 0.0000 -0.0000 0.0000 2.0034 -0.0804 -1.4682 -2.3818 1.1092 -0.2334 2.3649 0.6700 -5.7636 -1.7132 -17.7980 8.4816 0.0000 -0.0000 0.0000 0.5569 -2.4112 -0.7752 1.1303 -4.8233 -0.9793 -1.4285 5.6483 37.6065 -11.9761 -27.0859 60.8232 34.3434 23.2796 1.1960 46.7662 -12.1581 -13.7153 30.1758 -6.5340 19.6970 -5.2863 30.6736 -21.1350 -11.7510 -1.3055 -6.0320 0.6403 2.9218 -1.1602 0.6403 2.9218 -1.1602 -9.9543 -13.1658 6.3200 3.8801 8.2803 -41.0049 8.9747 -16.6314 -70.9088 -39.4201 23.0724 -0.1403 -53.0998 -9.0248 29.0085 -47.6224 -9.7731 -3.7518 1.0836 16.4403 18.4266 4.9239 -6.8264 0.9415 0.0000 -0.0000 0.0000 -21.5892 -6.9300 3.2445 -0.2043 8.3496 0.2196 4.8764 -8.3348 -2.5530 -1.1868 -5.5279 -5.9975 
-1.2008 8.7962 1.0687 2.6217 6.2403 3.7937 0.0000 -0.0000 0.0000 1.9055 0.1134 -1.4789 -2.3761 1.1032 -0.2334 2.5746 0.5246 -5.6584 -1.7048 -17.9274 8.3451 0.0000 -0.0000 0.0000 0.5703 -2.4157 -0.8324 1.1576 -4.8319 -1.0841 -1.2783 5.5885 37.6727 -12.3234 -29.5087 59.0804 30.6382 20.0200 -0.0593 43.9388 -14.3308 -7.5596 29.8766 -7.0459 19.2128 -6.1630 31.1109 -21.8704 -11.8400 -1.2351 -6.1017 0.6383 3.1960 -1.0996 0.6383 3.1961 -1.0996 -9.9753 -12.2496 6.1117 3.7520 8.2638 -41.1806 9.9790 -17.5180 -69.5413 -39.3483 23.1377 -0.1994 -56.9465 -10.0275 24.8834 -47.6744 -9.6531 -3.9142 1.6057 16.7552 18.8897 4.9472 -6.8034 0.9590 0.0000 -0.0000 0.0000 -21.5539 -7.0095 3.1957 -0.2998 8.7203 0.2040 4.9911 -8.5032 -2.7202 -1.1500 -5.4447 -5.7668 
-1.2042 8.7887 1.0650 2.4806 5.8957 3.7772 0.0000 -0.0000 0.0000 1.1862 0.5801 -1.4737 -2.2399 0.9638 -0.2092 3.4188 0.2414 -5.4139 -1.6790 -17.7856 7.9080 0.0000 -0.0000 0.0000 0.5187 -2.3419 -0.8525 1.0516 -4.6843 -1.1119 -1.2477 5.5237 37.3733 -13.1227 -31.0683 58.1742 27.8493 17.4876 -0.8530 40.6279 -15.3649 -5.0158 29.5771 -7.6676 18.6914 -7.0201 31.5559 -22.6049 -12.1008 -1.0298 -6.3059 0.6426 3.4407 -1.0434 0.6426 3.4408 -1.0434 -9.8616 -11.5054 5.6930 3.6393 8.2358 -41.2273 12.0578 -18.1579 -68.9052 -39.2750 23.2044 -0.2598 -58.7590 -12.4425 20.7488 -47.6788 -9.5263 -4.0246 2.1690 17.2165 19.4771 4.9484 -6.8022 0.9598 0.0000 -0.0000 0.0000 -21.5267 -7.0586 3.1205 -0.4159 9.3655 0.1848 5.1124 -8.7665 -2.9715 -1.1089 -5.3280 -5.4297 
-1.2082 8.7812 1.0557 2.3121 5.4592 3.6991 0.0000 -0.0000 0.0000 0.0928 1.1572 -1.4269 -2.0682 0.7560 -0.1789 4.6628 -0.0575 -5.0979 -1.6565 -17.6545 7.3559 0.0000 -0.0000 0.0000 0.4543 -2.1825 -0.8378 0.9181 -4.3656 -1.0757 -1.3479 5.4557 36.7279 -14.4225 -32.2657 58.0452 25.8103 15.6409 -1.3368 38.8390 -15.3074 -4.1347 29.2853 -8.2937 18.1691 -7.5106 31.7916 -23.0212 -12.4396 -0.7655 -6.5715 0.6490 3.5974 -0.9917 0.6490 3.5974 -0.9917 -9.7039 -11.1282 5.3111 3.6179 8.1886 -40.9477 14.4882 -18.4363 -68.8374 -39.1999 23.2728 -0.3217 -57.2844 -14.3713 18.8196 -47.7313 -9.5202 -4.1035 2.7308 17.7167 20.0946 4.9661 -6.7847 0.9731 0.0000 -0.0000 0.0000 -21.4096 -6.9991 3.0792 -0.4993 9.9490 0.1716 5.1471 -8.9698 -3.2065 -1.0782 -5.2343 -5.1412 
